<svg version="1.1" xmlns="http://www.w3.org/2000/svg" xmlns:xlink="http://www.w3.org/1999/xlink" width="665.27001953125" height="404"><defs/><g><text fill="#eeeeee" stroke="none" font-family="Arial" font-size="24px" font-style="normal" font-weight="normal" text-decoration="none" x="0" y="0">UNREGISTERED</text><text fill="#eeeeee" stroke="none" font-family="Arial" font-size="24px" font-style="normal" font-weight="normal" text-decoration="none" x="0" y="30">UNREGISTERED</text><text fill="#eeeeee" stroke="none" font-family="Arial" font-size="24px" font-style="normal" font-weight="normal" text-decoration="none" x="0" y="60">UNREGISTERED</text><text fill="#eeeeee" stroke="none" font-family="Arial" font-size="24px" font-style="normal" font-weight="normal" text-decoration="none" x="0" y="90">UNREGISTERED</text><text fill="#eeeeee" stroke="none" font-family="Arial" font-size="24px" font-style="normal" font-weight="normal" text-decoration="none" x="0" y="120">UNREGISTERED</text><text fill="#eeeeee" stroke="none" font-family="Arial" font-size="24px" font-style="normal" font-weight="normal" text-decoration="none" x="0" y="150">UNREGISTERED</text><text fill="#eeeeee" stroke="none" font-family="Arial" font-size="24px" font-style="normal" font-weight="normal" text-decoration="none" x="0" y="180">UNREGISTERED</text><text fill="#eeeeee" stroke="none" font-family="Arial" font-size="24px" font-style="normal" font-weight="normal" text-decoration="none" x="0" y="210">UNREGISTERED</text><text fill="#eeeeee" stroke="none" font-family="Arial" font-size="24px" font-style="normal" font-weight="normal" text-decoration="none" x="0" y="240">UNREGISTERED</text><text fill="#eeeeee" stroke="none" font-family="Arial" font-size="24px" font-style="normal" font-weight="normal" text-decoration="none" x="0" y="270">UNREGISTERED</text><text fill="#eeeeee" stroke="none" font-family="Arial" font-size="24px" font-style="normal" font-weight="normal" text-decoration="none" x="0" y="300">UNREGISTERED</text><text fill="#eeeeee" stroke="none" font-family="Arial" font-size="24px" font-style="normal" font-weight="normal" text-decoration="none" x="0" y="330">UNREGISTERED</text><text fill="#eeeeee" stroke="none" font-family="Arial" font-size="24px" font-style="normal" font-weight="normal" text-decoration="none" x="0" y="360">UNREGISTERED</text><text fill="#eeeeee" stroke="none" font-family="Arial" font-size="24px" font-style="normal" font-weight="normal" text-decoration="none" x="0" y="390">UNREGISTERED</text><text fill="#eeeeee" stroke="none" font-family="Arial" font-size="24px" font-style="normal" font-weight="normal" text-decoration="none" x="200" y="0">UNREGISTERED</text><text fill="#eeeeee" stroke="none" font-family="Arial" font-size="24px" font-style="normal" font-weight="normal" text-decoration="none" x="200" y="30">UNREGISTERED</text><text fill="#eeeeee" stroke="none" font-family="Arial" font-size="24px" font-style="normal" font-weight="normal" text-decoration="none" x="200" y="60">UNREGISTERED</text><text fill="#eeeeee" stroke="none" font-family="Arial" font-size="24px" font-style="normal" font-weight="normal" text-decoration="none" x="200" y="90">UNREGISTERED</text><text fill="#eeeeee" stroke="none" font-family="Arial" font-size="24px" font-style="normal" font-weight="normal" text-decoration="none" x="200" y="120">UNREGISTERED</text><text fill="#eeeeee" stroke="none" font-family="Arial" font-size="24px" font-style="normal" font-weight="normal" text-decoration="none" x="200" y="150">UNREGISTERED</text><text fill="#eeeeee" stroke="none" font-family="Arial" font-size="24px" font-style="normal" font-weight="normal" text-decoration="none" x="200" y="180">UNREGISTERED</text><text fill="#eeeeee" stroke="none" font-family="Arial" font-size="24px" font-style="normal" font-weight="normal" text-decoration="none" x="200" y="210">UNREGISTERED</text><text fill="#eeeeee" stroke="none" font-family="Arial" font-size="24px" font-style="normal" font-weight="normal" text-decoration="none" x="200" y="240">UNREGISTERED</text><text fill="#eeeeee" stroke="none" font-family="Arial" font-size="24px" font-style="normal" font-weight="normal" text-decoration="none" x="200" y="270">UNREGISTERED</text><text fill="#eeeeee" stroke="none" font-family="Arial" font-size="24px" font-style="normal" font-weight="normal" text-decoration="none" x="200" y="300">UNREGISTERED</text><text fill="#eeeeee" stroke="none" font-family="Arial" font-size="24px" font-style="normal" font-weight="normal" text-decoration="none" x="200" y="330">UNREGISTERED</text><text fill="#eeeeee" stroke="none" font-family="Arial" font-size="24px" font-style="normal" font-weight="normal" text-decoration="none" x="200" y="360">UNREGISTERED</text><text fill="#eeeeee" stroke="none" font-family="Arial" font-size="24px" font-style="normal" font-weight="normal" text-decoration="none" x="200" y="390">UNREGISTERED</text><text fill="#eeeeee" stroke="none" font-family="Arial" font-size="24px" font-style="normal" font-weight="normal" text-decoration="none" x="400" y="0">UNREGISTERED</text><text fill="#eeeeee" stroke="none" font-family="Arial" font-size="24px" font-style="normal" font-weight="normal" text-decoration="none" x="400" y="30">UNREGISTERED</text><text fill="#eeeeee" stroke="none" font-family="Arial" font-size="24px" font-style="normal" font-weight="normal" text-decoration="none" x="400" y="60">UNREGISTERED</text><text fill="#eeeeee" stroke="none" font-family="Arial" font-size="24px" font-style="normal" font-weight="normal" text-decoration="none" x="400" y="90">UNREGISTERED</text><text fill="#eeeeee" stroke="none" font-family="Arial" font-size="24px" font-style="normal" font-weight="normal" text-decoration="none" x="400" y="120">UNREGISTERED</text><text fill="#eeeeee" stroke="none" font-family="Arial" font-size="24px" font-style="normal" font-weight="normal" text-decoration="none" x="400" y="150">UNREGISTERED</text><text fill="#eeeeee" stroke="none" font-family="Arial" font-size="24px" font-style="normal" font-weight="normal" text-decoration="none" x="400" y="180">UNREGISTERED</text><text fill="#eeeeee" stroke="none" font-family="Arial" font-size="24px" font-style="normal" font-weight="normal" text-decoration="none" x="400" y="210">UNREGISTERED</text><text fill="#eeeeee" stroke="none" font-family="Arial" font-size="24px" font-style="normal" font-weight="normal" text-decoration="none" x="400" y="240">UNREGISTERED</text><text fill="#eeeeee" stroke="none" font-family="Arial" font-size="24px" font-style="normal" font-weight="normal" text-decoration="none" x="400" y="270">UNREGISTERED</text><text fill="#eeeeee" stroke="none" font-family="Arial" font-size="24px" font-style="normal" font-weight="normal" text-decoration="none" x="400" y="300">UNREGISTERED</text><text fill="#eeeeee" stroke="none" font-family="Arial" font-size="24px" font-style="normal" font-weight="normal" text-decoration="none" x="400" y="330">UNREGISTERED</text><text fill="#eeeeee" stroke="none" font-family="Arial" font-size="24px" font-style="normal" font-weight="normal" text-decoration="none" x="400" y="360">UNREGISTERED</text><text fill="#eeeeee" stroke="none" font-family="Arial" font-size="24px" font-style="normal" font-weight="normal" text-decoration="none" x="400" y="390">UNREGISTERED</text><text fill="#eeeeee" stroke="none" font-family="Arial" font-size="24px" font-style="normal" font-weight="normal" text-decoration="none" x="600" y="0">UNREGISTERED</text><text fill="#eeeeee" stroke="none" font-family="Arial" font-size="24px" font-style="normal" font-weight="normal" text-decoration="none" x="600" y="30">UNREGISTERED</text><text fill="#eeeeee" stroke="none" font-family="Arial" font-size="24px" font-style="normal" font-weight="normal" text-decoration="none" x="600" y="60">UNREGISTERED</text><text fill="#eeeeee" stroke="none" font-family="Arial" font-size="24px" font-style="normal" font-weight="normal" text-decoration="none" x="600" y="90">UNREGISTERED</text><text fill="#eeeeee" stroke="none" font-family="Arial" font-size="24px" font-style="normal" font-weight="normal" text-decoration="none" x="600" y="120">UNREGISTERED</text><text fill="#eeeeee" stroke="none" font-family="Arial" font-size="24px" font-style="normal" font-weight="normal" text-decoration="none" x="600" y="150">UNREGISTERED</text><text fill="#eeeeee" stroke="none" font-family="Arial" font-size="24px" font-style="normal" font-weight="normal" text-decoration="none" x="600" y="180">UNREGISTERED</text><text fill="#eeeeee" stroke="none" font-family="Arial" font-size="24px" font-style="normal" font-weight="normal" text-decoration="none" x="600" y="210">UNREGISTERED</text><text fill="#eeeeee" stroke="none" font-family="Arial" font-size="24px" font-style="normal" font-weight="normal" text-decoration="none" x="600" y="240">UNREGISTERED</text><text fill="#eeeeee" stroke="none" font-family="Arial" font-size="24px" font-style="normal" font-weight="normal" text-decoration="none" x="600" y="270">UNREGISTERED</text><text fill="#eeeeee" stroke="none" font-family="Arial" font-size="24px" font-style="normal" font-weight="normal" text-decoration="none" x="600" y="300">UNREGISTERED</text><text fill="#eeeeee" stroke="none" font-family="Arial" font-size="24px" font-style="normal" font-weight="normal" text-decoration="none" x="600" y="330">UNREGISTERED</text><text fill="#eeeeee" stroke="none" font-family="Arial" font-size="24px" font-style="normal" font-weight="normal" text-decoration="none" x="600" y="360">UNREGISTERED</text><text fill="#eeeeee" stroke="none" font-family="Arial" font-size="24px" font-style="normal" font-weight="normal" text-decoration="none" x="600" y="390">UNREGISTERED</text><g transform="translate(-310,-366) scale(1,1)"><rect fill="#C0C0C0" stroke="none" x="343" y="383" width="126.01904296875" height="87" opacity="0.2"/></g><g transform="translate(-310,-366) scale(1,1)"><rect fill="#ffffff" stroke="none" x="336" y="376" width="126.01904296875" height="87"/></g><g transform="translate(-310,-366) scale(1,1)"><path fill="none" stroke="#000000" d="M 336 376 L 462.01904296875 376 L 462.01904296875 463 L 336 463 L 336 376 Z Z" stroke-miterlimit="10"/></g><g transform="translate(-310,-366) scale(1,1)"><path fill="none" stroke="#000000" d="M 336 416 L 462.01904296875 416" stroke-miterlimit="10"/></g><g transform="translate(-310,-366) scale(1,1)"><path fill="none" stroke="#000000" d="M 336 426 L 462.01904296875 426" stroke-miterlimit="10"/></g><g transform="translate(-310,-366) scale(1,1)"><g><path fill="none" stroke="none"/><text fill="#000000" stroke="none" font-family="Arial" font-size="13px" font-style="normal" font-weight="bold" text-decoration="none" x="340.5" y="394">DetectFurnituresUI</text></g></g><g transform="translate(-310,-366) scale(1,1)"><g><path fill="none" stroke="none"/><text fill="#000000" stroke="none" font-family="Arial" font-size="13px" font-style="normal" font-weight="normal" text-decoration="none" x="357.83544921875" y="409">(from Untitled)</text></g></g><g transform="translate(-310,-366) scale(1,1)"><g><path fill="none" stroke="none"/><text fill="#000000" stroke="none" font-family="Arial" font-size="13px" font-style="normal" font-weight="normal" text-decoration="none" x="341" y="442">+uploadImage()</text></g></g><g transform="translate(-310,-366) scale(1,1)"><g><path fill="none" stroke="none"/><text fill="#000000" stroke="none" font-family="Arial" font-size="13px" font-style="normal" font-weight="normal" text-decoration="none" x="341" y="457">+showPreview()</text></g></g><g transform="translate(-310,-366) scale(1,1)"><rect fill="#C0C0C0" stroke="none" x="341" y="507" width="113.01904296875" height="72" opacity="0.2"/></g><g transform="translate(-310,-366) scale(1,1)"><rect fill="#ffffff" stroke="none" x="334" y="500" width="113.01904296875" height="72"/></g><g transform="translate(-310,-366) scale(1,1)"><path fill="none" stroke="#000000" d="M 334 500 L 447.01904296875 500 L 447.01904296875 572 L 334 572 L 334 500 Z Z" stroke-miterlimit="10"/></g><g transform="translate(-310,-366) scale(1,1)"><path fill="none" stroke="#000000" d="M 334 540 L 447.01904296875 540" stroke-miterlimit="10"/></g><g transform="translate(-310,-366) scale(1,1)"><path fill="none" stroke="#000000" d="M 334 550 L 447.01904296875 550" stroke-miterlimit="10"/></g><g transform="translate(-310,-366) scale(1,1)"><g><path fill="none" stroke="none"/><text fill="#000000" stroke="none" font-family="Arial" font-size="13px" font-style="normal" font-weight="bold" text-decoration="none" x="338.5" y="518">DetectFurnitures</text></g></g><g transform="translate(-310,-366) scale(1,1)"><g><path fill="none" stroke="none"/><text fill="#000000" stroke="none" font-family="Arial" font-size="13px" font-style="normal" font-weight="normal" text-decoration="none" x="349.33544921875" y="533">(from Untitled)</text></g></g><g transform="translate(-310,-366) scale(1,1)"><g><path fill="none" stroke="none"/><text fill="#000000" stroke="none" font-family="Arial" font-size="13px" font-style="normal" font-weight="normal" text-decoration="none" x="339" y="566">+listFurnitures()</text></g></g><g transform="translate(-310,-366) scale(1,1)"><rect fill="#C0C0C0" stroke="none" x="327" y="695" width="140.80908203125" height="72" opacity="0.2"/></g><g transform="translate(-310,-366) scale(1,1)"><rect fill="#ffffff" stroke="none" x="320" y="688" width="140.80908203125" height="72"/></g><g transform="translate(-310,-366) scale(1,1)"><path fill="none" stroke="#000000" d="M 320 688 L 460.80908203125 688 L 460.80908203125 760 L 320 760 L 320 688 Z Z" stroke-miterlimit="10"/></g><g transform="translate(-310,-366) scale(1,1)"><path fill="none" stroke="#000000" d="M 320 728 L 460.80908203125 728" stroke-miterlimit="10"/></g><g transform="translate(-310,-366) scale(1,1)"><path fill="none" stroke="#000000" d="M 320 738 L 460.80908203125 738" stroke-miterlimit="10"/></g><g transform="translate(-310,-366) scale(1,1)"><g><path fill="none" stroke="none"/><text fill="#000000" stroke="none" font-family="Arial" font-size="13px" font-style="normal" font-weight="bold" text-decoration="none" x="326.851806640625" y="706">MultiDetectionModel</text></g></g><g transform="translate(-310,-366) scale(1,1)"><g><path fill="none" stroke="none"/><text fill="#000000" stroke="none" font-family="Arial" font-size="13px" font-style="normal" font-weight="normal" text-decoration="none" x="349.23046875" y="721">(from Untitled)</text></g></g><g transform="translate(-310,-366) scale(1,1)"><g><path fill="none" stroke="none"/><text fill="#000000" stroke="none" font-family="Arial" font-size="13px" font-style="normal" font-weight="normal" text-decoration="none" x="325" y="754">+listFurnitures()</text></g></g><g transform="translate(-310,-366) scale(1,1)"><rect fill="#C0C0C0" stroke="none" x="703" y="383" width="129.6435546875" height="72" opacity="0.2"/></g><g transform="translate(-310,-366) scale(1,1)"><rect fill="#ffffff" stroke="none" x="696" y="376" width="129.6435546875" height="72"/></g><g transform="translate(-310,-366) scale(1,1)"><path fill="none" stroke="#000000" d="M 696 376 L 825.6435546875 376 L 825.6435546875 448 L 696 448 L 696 376 Z Z" stroke-miterlimit="10"/></g><g transform="translate(-310,-366) scale(1,1)"><path fill="none" stroke="#000000" d="M 696 416 L 825.6435546875 416" stroke-miterlimit="10"/></g><g transform="translate(-310,-366) scale(1,1)"><path fill="none" stroke="#000000" d="M 696 426 L 825.6435546875 426" stroke-miterlimit="10"/></g><g transform="translate(-310,-366) scale(1,1)"><g><path fill="none" stroke="none"/><text fill="#000000" stroke="none" font-family="Arial" font-size="13px" font-style="normal" font-weight="bold" text-decoration="none" x="700.5" y="394">SearchFurnituresUI</text></g></g><g transform="translate(-310,-366) scale(1,1)"><g><path fill="none" stroke="none"/><text fill="#000000" stroke="none" font-family="Arial" font-size="13px" font-style="normal" font-weight="normal" text-decoration="none" x="719.647705078125" y="409">(from Untitled)</text></g></g><g transform="translate(-310,-366) scale(1,1)"><g><path fill="none" stroke="none"/><text fill="#000000" stroke="none" font-family="Arial" font-size="13px" font-style="normal" font-weight="normal" text-decoration="none" x="701" y="442">+selectFurnitures()</text></g></g><g transform="translate(-310,-366) scale(1,1)"><rect fill="#C0C0C0" stroke="none" x="703" y="511" width="143.0244140625" height="72" opacity="0.2"/></g><g transform="translate(-310,-366) scale(1,1)"><rect fill="#ffffff" stroke="none" x="696" y="504" width="143.0244140625" height="72"/></g><g transform="translate(-310,-366) scale(1,1)"><path fill="none" stroke="#000000" d="M 696 504 L 839.0244140625 504 L 839.0244140625 576 L 696 576 L 696 504 Z Z" stroke-miterlimit="10"/></g><g transform="translate(-310,-366) scale(1,1)"><path fill="none" stroke="#000000" d="M 696 544 L 839.0244140625 544" stroke-miterlimit="10"/></g><g transform="translate(-310,-366) scale(1,1)"><path fill="none" stroke="#000000" d="M 696 554 L 839.0244140625 554" stroke-miterlimit="10"/></g><g transform="translate(-310,-366) scale(1,1)"><g><path fill="none" stroke="none"/><text fill="#000000" stroke="none" font-family="Arial" font-size="13px" font-style="normal" font-weight="bold" text-decoration="none" x="713.6904296875" y="522">SearchFurnitures</text></g></g><g transform="translate(-310,-366) scale(1,1)"><g><path fill="none" stroke="none"/><text fill="#000000" stroke="none" font-family="Arial" font-size="13px" font-style="normal" font-weight="normal" text-decoration="none" x="726.338134765625" y="537">(from Untitled)</text></g></g><g transform="translate(-310,-366) scale(1,1)"><g><path fill="none" stroke="none"/><text fill="#000000" stroke="none" font-family="Arial" font-size="13px" font-style="normal" font-weight="normal" text-decoration="none" x="701" y="570">+getSimilarFurnitures()</text></g></g><g transform="translate(-310,-366) scale(1,1)"><rect fill="#C0C0C0" stroke="none" x="575" y="687" width="163.5908203125" height="72" opacity="0.2"/></g><g transform="translate(-310,-366) scale(1,1)"><rect fill="#ffffff" stroke="none" x="568" y="680" width="163.5908203125" height="72"/></g><g transform="translate(-310,-366) scale(1,1)"><path fill="none" stroke="#000000" d="M 568 680 L 731.5908203125 680 L 731.5908203125 752 L 568 752 L 568 680 Z Z" stroke-miterlimit="10"/></g><g transform="translate(-310,-366) scale(1,1)"><path fill="none" stroke="#000000" d="M 568 720 L 731.5908203125 720" stroke-miterlimit="10"/></g><g transform="translate(-310,-366) scale(1,1)"><path fill="none" stroke="#000000" d="M 568 730 L 731.5908203125 730" stroke-miterlimit="10"/></g><g transform="translate(-310,-366) scale(1,1)"><g><path fill="none" stroke="none"/><text fill="#000000" stroke="none" font-family="Arial" font-size="13px" font-style="normal" font-weight="bold" text-decoration="none" x="572.5" y="698">SimilarityCheckingModel</text></g></g><g transform="translate(-310,-366) scale(1,1)"><g><path fill="none" stroke="none"/><text fill="#000000" stroke="none" font-family="Arial" font-size="13px" font-style="normal" font-weight="normal" text-decoration="none" x="608.621337890625" y="713">(from Untitled)</text></g></g><g transform="translate(-310,-366) scale(1,1)"><g><path fill="none" stroke="none"/><text fill="#000000" stroke="none" font-family="Arial" font-size="13px" font-style="normal" font-weight="normal" text-decoration="none" x="573" y="746">+checkSimilarity()</text></g></g><g transform="translate(-310,-366) scale(1,1)"><rect fill="#C0C0C0" stroke="none" x="847" y="679" width="125.27001953125" height="72" opacity="0.2"/></g><g transform="translate(-310,-366) scale(1,1)"><rect fill="#ffffff" stroke="none" x="840" y="672" width="125.27001953125" height="72"/></g><g transform="translate(-310,-366) scale(1,1)"><path fill="none" stroke="#000000" d="M 840 672 L 965.27001953125 672 L 965.27001953125 744 L 840 744 L 840 672 Z Z" stroke-miterlimit="10"/></g><g transform="translate(-310,-366) scale(1,1)"><path fill="none" stroke="#000000" d="M 840 712 L 965.27001953125 712" stroke-miterlimit="10"/></g><g transform="translate(-310,-366) scale(1,1)"><path fill="none" stroke="#000000" d="M 840 722 L 965.27001953125 722" stroke-miterlimit="10"/></g><g transform="translate(-310,-366) scale(1,1)"><g><path fill="none" stroke="none"/><text fill="#000000" stroke="none" font-family="Arial" font-size="13px" font-style="normal" font-weight="bold" text-decoration="none" x="853.2724609375" y="690">WebDataLoader</text></g></g><g transform="translate(-310,-366) scale(1,1)"><g><path fill="none" stroke="none"/><text fill="#000000" stroke="none" font-family="Arial" font-size="13px" font-style="normal" font-weight="normal" text-decoration="none" x="861.4609375" y="705">(from Untitled)</text></g></g><g transform="translate(-310,-366) scale(1,1)"><g><path fill="none" stroke="none"/><text fill="#000000" stroke="none" font-family="Arial" font-size="13px" font-style="normal" font-weight="normal" text-decoration="none" x="845" y="738">+getFurnitureData()</text></g></g><g transform="translate(-310,-366) scale(1,1)"><path fill="none" stroke="#000000" d="M 390 573 L 390 687" stroke-miterlimit="10"/></g><g transform="translate(-310,-366) scale(1,1)"><path fill="none" stroke="#000000" d="M 742 577 L 674 679" stroke-miterlimit="10"/></g><g transform="translate(-310,-366) scale(1,1)"><path fill="none" stroke="#000000" d="M 797 577 L 872 671" stroke-miterlimit="10"/></g></g></svg>