<svg version="1.1" xmlns="http://www.w3.org/2000/svg" xmlns:xlink="http://www.w3.org/1999/xlink" width="1132" height="611"><defs/><g><text fill="#eeeeee" stroke="none" font-family="Arial" font-size="24px" font-style="normal" font-weight="normal" text-decoration="none" x="0" y="0">UNREGISTERED</text><text fill="#eeeeee" stroke="none" font-family="Arial" font-size="24px" font-style="normal" font-weight="normal" text-decoration="none" x="0" y="30">UNREGISTERED</text><text fill="#eeeeee" stroke="none" font-family="Arial" font-size="24px" font-style="normal" font-weight="normal" text-decoration="none" x="0" y="60">UNREGISTERED</text><text fill="#eeeeee" stroke="none" font-family="Arial" font-size="24px" font-style="normal" font-weight="normal" text-decoration="none" x="0" y="90">UNREGISTERED</text><text fill="#eeeeee" stroke="none" font-family="Arial" font-size="24px" font-style="normal" font-weight="normal" text-decoration="none" x="0" y="120">UNREGISTERED</text><text fill="#eeeeee" stroke="none" font-family="Arial" font-size="24px" font-style="normal" font-weight="normal" text-decoration="none" x="0" y="150">UNREGISTERED</text><text fill="#eeeeee" stroke="none" font-family="Arial" font-size="24px" font-style="normal" font-weight="normal" text-decoration="none" x="0" y="180">UNREGISTERED</text><text fill="#eeeeee" stroke="none" font-family="Arial" font-size="24px" font-style="normal" font-weight="normal" text-decoration="none" x="0" y="210">UNREGISTERED</text><text fill="#eeeeee" stroke="none" font-family="Arial" font-size="24px" font-style="normal" font-weight="normal" text-decoration="none" x="0" y="240">UNREGISTERED</text><text fill="#eeeeee" stroke="none" font-family="Arial" font-size="24px" font-style="normal" font-weight="normal" text-decoration="none" x="0" y="270">UNREGISTERED</text><text fill="#eeeeee" stroke="none" font-family="Arial" font-size="24px" font-style="normal" font-weight="normal" text-decoration="none" x="0" y="300">UNREGISTERED</text><text fill="#eeeeee" stroke="none" font-family="Arial" font-size="24px" font-style="normal" font-weight="normal" text-decoration="none" x="0" y="330">UNREGISTERED</text><text fill="#eeeeee" stroke="none" font-family="Arial" font-size="24px" font-style="normal" font-weight="normal" text-decoration="none" x="0" y="360">UNREGISTERED</text><text fill="#eeeeee" stroke="none" font-family="Arial" font-size="24px" font-style="normal" font-weight="normal" text-decoration="none" x="0" y="390">UNREGISTERED</text><text fill="#eeeeee" stroke="none" font-family="Arial" font-size="24px" font-style="normal" font-weight="normal" text-decoration="none" x="0" y="420">UNREGISTERED</text><text fill="#eeeeee" stroke="none" font-family="Arial" font-size="24px" font-style="normal" font-weight="normal" text-decoration="none" x="0" y="450">UNREGISTERED</text><text fill="#eeeeee" stroke="none" font-family="Arial" font-size="24px" font-style="normal" font-weight="normal" text-decoration="none" x="0" y="480">UNREGISTERED</text><text fill="#eeeeee" stroke="none" font-family="Arial" font-size="24px" font-style="normal" font-weight="normal" text-decoration="none" x="0" y="510">UNREGISTERED</text><text fill="#eeeeee" stroke="none" font-family="Arial" font-size="24px" font-style="normal" font-weight="normal" text-decoration="none" x="0" y="540">UNREGISTERED</text><text fill="#eeeeee" stroke="none" font-family="Arial" font-size="24px" font-style="normal" font-weight="normal" text-decoration="none" x="0" y="570">UNREGISTERED</text><text fill="#eeeeee" stroke="none" font-family="Arial" font-size="24px" font-style="normal" font-weight="normal" text-decoration="none" x="0" y="600">UNREGISTERED</text><text fill="#eeeeee" stroke="none" font-family="Arial" font-size="24px" font-style="normal" font-weight="normal" text-decoration="none" x="200" y="0">UNREGISTERED</text><text fill="#eeeeee" stroke="none" font-family="Arial" font-size="24px" font-style="normal" font-weight="normal" text-decoration="none" x="200" y="30">UNREGISTERED</text><text fill="#eeeeee" stroke="none" font-family="Arial" font-size="24px" font-style="normal" font-weight="normal" text-decoration="none" x="200" y="60">UNREGISTERED</text><text fill="#eeeeee" stroke="none" font-family="Arial" font-size="24px" font-style="normal" font-weight="normal" text-decoration="none" x="200" y="90">UNREGISTERED</text><text fill="#eeeeee" stroke="none" font-family="Arial" font-size="24px" font-style="normal" font-weight="normal" text-decoration="none" x="200" y="120">UNREGISTERED</text><text fill="#eeeeee" stroke="none" font-family="Arial" font-size="24px" font-style="normal" font-weight="normal" text-decoration="none" x="200" y="150">UNREGISTERED</text><text fill="#eeeeee" stroke="none" font-family="Arial" font-size="24px" font-style="normal" font-weight="normal" text-decoration="none" x="200" y="180">UNREGISTERED</text><text fill="#eeeeee" stroke="none" font-family="Arial" font-size="24px" font-style="normal" font-weight="normal" text-decoration="none" x="200" y="210">UNREGISTERED</text><text fill="#eeeeee" stroke="none" font-family="Arial" font-size="24px" font-style="normal" font-weight="normal" text-decoration="none" x="200" y="240">UNREGISTERED</text><text fill="#eeeeee" stroke="none" font-family="Arial" font-size="24px" font-style="normal" font-weight="normal" text-decoration="none" x="200" y="270">UNREGISTERED</text><text fill="#eeeeee" stroke="none" font-family="Arial" font-size="24px" font-style="normal" font-weight="normal" text-decoration="none" x="200" y="300">UNREGISTERED</text><text fill="#eeeeee" stroke="none" font-family="Arial" font-size="24px" font-style="normal" font-weight="normal" text-decoration="none" x="200" y="330">UNREGISTERED</text><text fill="#eeeeee" stroke="none" font-family="Arial" font-size="24px" font-style="normal" font-weight="normal" text-decoration="none" x="200" y="360">UNREGISTERED</text><text fill="#eeeeee" stroke="none" font-family="Arial" font-size="24px" font-style="normal" font-weight="normal" text-decoration="none" x="200" y="390">UNREGISTERED</text><text fill="#eeeeee" stroke="none" font-family="Arial" font-size="24px" font-style="normal" font-weight="normal" text-decoration="none" x="200" y="420">UNREGISTERED</text><text fill="#eeeeee" stroke="none" font-family="Arial" font-size="24px" font-style="normal" font-weight="normal" text-decoration="none" x="200" y="450">UNREGISTERED</text><text fill="#eeeeee" stroke="none" font-family="Arial" font-size="24px" font-style="normal" font-weight="normal" text-decoration="none" x="200" y="480">UNREGISTERED</text><text fill="#eeeeee" stroke="none" font-family="Arial" font-size="24px" font-style="normal" font-weight="normal" text-decoration="none" x="200" y="510">UNREGISTERED</text><text fill="#eeeeee" stroke="none" font-family="Arial" font-size="24px" font-style="normal" font-weight="normal" text-decoration="none" x="200" y="540">UNREGISTERED</text><text fill="#eeeeee" stroke="none" font-family="Arial" font-size="24px" font-style="normal" font-weight="normal" text-decoration="none" x="200" y="570">UNREGISTERED</text><text fill="#eeeeee" stroke="none" font-family="Arial" font-size="24px" font-style="normal" font-weight="normal" text-decoration="none" x="200" y="600">UNREGISTERED</text><text fill="#eeeeee" stroke="none" font-family="Arial" font-size="24px" font-style="normal" font-weight="normal" text-decoration="none" x="400" y="0">UNREGISTERED</text><text fill="#eeeeee" stroke="none" font-family="Arial" font-size="24px" font-style="normal" font-weight="normal" text-decoration="none" x="400" y="30">UNREGISTERED</text><text fill="#eeeeee" stroke="none" font-family="Arial" font-size="24px" font-style="normal" font-weight="normal" text-decoration="none" x="400" y="60">UNREGISTERED</text><text fill="#eeeeee" stroke="none" font-family="Arial" font-size="24px" font-style="normal" font-weight="normal" text-decoration="none" x="400" y="90">UNREGISTERED</text><text fill="#eeeeee" stroke="none" font-family="Arial" font-size="24px" font-style="normal" font-weight="normal" text-decoration="none" x="400" y="120">UNREGISTERED</text><text fill="#eeeeee" stroke="none" font-family="Arial" font-size="24px" font-style="normal" font-weight="normal" text-decoration="none" x="400" y="150">UNREGISTERED</text><text fill="#eeeeee" stroke="none" font-family="Arial" font-size="24px" font-style="normal" font-weight="normal" text-decoration="none" x="400" y="180">UNREGISTERED</text><text fill="#eeeeee" stroke="none" font-family="Arial" font-size="24px" font-style="normal" font-weight="normal" text-decoration="none" x="400" y="210">UNREGISTERED</text><text fill="#eeeeee" stroke="none" font-family="Arial" font-size="24px" font-style="normal" font-weight="normal" text-decoration="none" x="400" y="240">UNREGISTERED</text><text fill="#eeeeee" stroke="none" font-family="Arial" font-size="24px" font-style="normal" font-weight="normal" text-decoration="none" x="400" y="270">UNREGISTERED</text><text fill="#eeeeee" stroke="none" font-family="Arial" font-size="24px" font-style="normal" font-weight="normal" text-decoration="none" x="400" y="300">UNREGISTERED</text><text fill="#eeeeee" stroke="none" font-family="Arial" font-size="24px" font-style="normal" font-weight="normal" text-decoration="none" x="400" y="330">UNREGISTERED</text><text fill="#eeeeee" stroke="none" font-family="Arial" font-size="24px" font-style="normal" font-weight="normal" text-decoration="none" x="400" y="360">UNREGISTERED</text><text fill="#eeeeee" stroke="none" font-family="Arial" font-size="24px" font-style="normal" font-weight="normal" text-decoration="none" x="400" y="390">UNREGISTERED</text><text fill="#eeeeee" stroke="none" font-family="Arial" font-size="24px" font-style="normal" font-weight="normal" text-decoration="none" x="400" y="420">UNREGISTERED</text><text fill="#eeeeee" stroke="none" font-family="Arial" font-size="24px" font-style="normal" font-weight="normal" text-decoration="none" x="400" y="450">UNREGISTERED</text><text fill="#eeeeee" stroke="none" font-family="Arial" font-size="24px" font-style="normal" font-weight="normal" text-decoration="none" x="400" y="480">UNREGISTERED</text><text fill="#eeeeee" stroke="none" font-family="Arial" font-size="24px" font-style="normal" font-weight="normal" text-decoration="none" x="400" y="510">UNREGISTERED</text><text fill="#eeeeee" stroke="none" font-family="Arial" font-size="24px" font-style="normal" font-weight="normal" text-decoration="none" x="400" y="540">UNREGISTERED</text><text fill="#eeeeee" stroke="none" font-family="Arial" font-size="24px" font-style="normal" font-weight="normal" text-decoration="none" x="400" y="570">UNREGISTERED</text><text fill="#eeeeee" stroke="none" font-family="Arial" font-size="24px" font-style="normal" font-weight="normal" text-decoration="none" x="400" y="600">UNREGISTERED</text><text fill="#eeeeee" stroke="none" font-family="Arial" font-size="24px" font-style="normal" font-weight="normal" text-decoration="none" x="600" y="0">UNREGISTERED</text><text fill="#eeeeee" stroke="none" font-family="Arial" font-size="24px" font-style="normal" font-weight="normal" text-decoration="none" x="600" y="30">UNREGISTERED</text><text fill="#eeeeee" stroke="none" font-family="Arial" font-size="24px" font-style="normal" font-weight="normal" text-decoration="none" x="600" y="60">UNREGISTERED</text><text fill="#eeeeee" stroke="none" font-family="Arial" font-size="24px" font-style="normal" font-weight="normal" text-decoration="none" x="600" y="90">UNREGISTERED</text><text fill="#eeeeee" stroke="none" font-family="Arial" font-size="24px" font-style="normal" font-weight="normal" text-decoration="none" x="600" y="120">UNREGISTERED</text><text fill="#eeeeee" stroke="none" font-family="Arial" font-size="24px" font-style="normal" font-weight="normal" text-decoration="none" x="600" y="150">UNREGISTERED</text><text fill="#eeeeee" stroke="none" font-family="Arial" font-size="24px" font-style="normal" font-weight="normal" text-decoration="none" x="600" y="180">UNREGISTERED</text><text fill="#eeeeee" stroke="none" font-family="Arial" font-size="24px" font-style="normal" font-weight="normal" text-decoration="none" x="600" y="210">UNREGISTERED</text><text fill="#eeeeee" stroke="none" font-family="Arial" font-size="24px" font-style="normal" font-weight="normal" text-decoration="none" x="600" y="240">UNREGISTERED</text><text fill="#eeeeee" stroke="none" font-family="Arial" font-size="24px" font-style="normal" font-weight="normal" text-decoration="none" x="600" y="270">UNREGISTERED</text><text fill="#eeeeee" stroke="none" font-family="Arial" font-size="24px" font-style="normal" font-weight="normal" text-decoration="none" x="600" y="300">UNREGISTERED</text><text fill="#eeeeee" stroke="none" font-family="Arial" font-size="24px" font-style="normal" font-weight="normal" text-decoration="none" x="600" y="330">UNREGISTERED</text><text fill="#eeeeee" stroke="none" font-family="Arial" font-size="24px" font-style="normal" font-weight="normal" text-decoration="none" x="600" y="360">UNREGISTERED</text><text fill="#eeeeee" stroke="none" font-family="Arial" font-size="24px" font-style="normal" font-weight="normal" text-decoration="none" x="600" y="390">UNREGISTERED</text><text fill="#eeeeee" stroke="none" font-family="Arial" font-size="24px" font-style="normal" font-weight="normal" text-decoration="none" x="600" y="420">UNREGISTERED</text><text fill="#eeeeee" stroke="none" font-family="Arial" font-size="24px" font-style="normal" font-weight="normal" text-decoration="none" x="600" y="450">UNREGISTERED</text><text fill="#eeeeee" stroke="none" font-family="Arial" font-size="24px" font-style="normal" font-weight="normal" text-decoration="none" x="600" y="480">UNREGISTERED</text><text fill="#eeeeee" stroke="none" font-family="Arial" font-size="24px" font-style="normal" font-weight="normal" text-decoration="none" x="600" y="510">UNREGISTERED</text><text fill="#eeeeee" stroke="none" font-family="Arial" font-size="24px" font-style="normal" font-weight="normal" text-decoration="none" x="600" y="540">UNREGISTERED</text><text fill="#eeeeee" stroke="none" font-family="Arial" font-size="24px" font-style="normal" font-weight="normal" text-decoration="none" x="600" y="570">UNREGISTERED</text><text fill="#eeeeee" stroke="none" font-family="Arial" font-size="24px" font-style="normal" font-weight="normal" text-decoration="none" x="600" y="600">UNREGISTERED</text><text fill="#eeeeee" stroke="none" font-family="Arial" font-size="24px" font-style="normal" font-weight="normal" text-decoration="none" x="800" y="0">UNREGISTERED</text><text fill="#eeeeee" stroke="none" font-family="Arial" font-size="24px" font-style="normal" font-weight="normal" text-decoration="none" x="800" y="30">UNREGISTERED</text><text fill="#eeeeee" stroke="none" font-family="Arial" font-size="24px" font-style="normal" font-weight="normal" text-decoration="none" x="800" y="60">UNREGISTERED</text><text fill="#eeeeee" stroke="none" font-family="Arial" font-size="24px" font-style="normal" font-weight="normal" text-decoration="none" x="800" y="90">UNREGISTERED</text><text fill="#eeeeee" stroke="none" font-family="Arial" font-size="24px" font-style="normal" font-weight="normal" text-decoration="none" x="800" y="120">UNREGISTERED</text><text fill="#eeeeee" stroke="none" font-family="Arial" font-size="24px" font-style="normal" font-weight="normal" text-decoration="none" x="800" y="150">UNREGISTERED</text><text fill="#eeeeee" stroke="none" font-family="Arial" font-size="24px" font-style="normal" font-weight="normal" text-decoration="none" x="800" y="180">UNREGISTERED</text><text fill="#eeeeee" stroke="none" font-family="Arial" font-size="24px" font-style="normal" font-weight="normal" text-decoration="none" x="800" y="210">UNREGISTERED</text><text fill="#eeeeee" stroke="none" font-family="Arial" font-size="24px" font-style="normal" font-weight="normal" text-decoration="none" x="800" y="240">UNREGISTERED</text><text fill="#eeeeee" stroke="none" font-family="Arial" font-size="24px" font-style="normal" font-weight="normal" text-decoration="none" x="800" y="270">UNREGISTERED</text><text fill="#eeeeee" stroke="none" font-family="Arial" font-size="24px" font-style="normal" font-weight="normal" text-decoration="none" x="800" y="300">UNREGISTERED</text><text fill="#eeeeee" stroke="none" font-family="Arial" font-size="24px" font-style="normal" font-weight="normal" text-decoration="none" x="800" y="330">UNREGISTERED</text><text fill="#eeeeee" stroke="none" font-family="Arial" font-size="24px" font-style="normal" font-weight="normal" text-decoration="none" x="800" y="360">UNREGISTERED</text><text fill="#eeeeee" stroke="none" font-family="Arial" font-size="24px" font-style="normal" font-weight="normal" text-decoration="none" x="800" y="390">UNREGISTERED</text><text fill="#eeeeee" stroke="none" font-family="Arial" font-size="24px" font-style="normal" font-weight="normal" text-decoration="none" x="800" y="420">UNREGISTERED</text><text fill="#eeeeee" stroke="none" font-family="Arial" font-size="24px" font-style="normal" font-weight="normal" text-decoration="none" x="800" y="450">UNREGISTERED</text><text fill="#eeeeee" stroke="none" font-family="Arial" font-size="24px" font-style="normal" font-weight="normal" text-decoration="none" x="800" y="480">UNREGISTERED</text><text fill="#eeeeee" stroke="none" font-family="Arial" font-size="24px" font-style="normal" font-weight="normal" text-decoration="none" x="800" y="510">UNREGISTERED</text><text fill="#eeeeee" stroke="none" font-family="Arial" font-size="24px" font-style="normal" font-weight="normal" text-decoration="none" x="800" y="540">UNREGISTERED</text><text fill="#eeeeee" stroke="none" font-family="Arial" font-size="24px" font-style="normal" font-weight="normal" text-decoration="none" x="800" y="570">UNREGISTERED</text><text fill="#eeeeee" stroke="none" font-family="Arial" font-size="24px" font-style="normal" font-weight="normal" text-decoration="none" x="800" y="600">UNREGISTERED</text><text fill="#eeeeee" stroke="none" font-family="Arial" font-size="24px" font-style="normal" font-weight="normal" text-decoration="none" x="1000" y="0">UNREGISTERED</text><text fill="#eeeeee" stroke="none" font-family="Arial" font-size="24px" font-style="normal" font-weight="normal" text-decoration="none" x="1000" y="30">UNREGISTERED</text><text fill="#eeeeee" stroke="none" font-family="Arial" font-size="24px" font-style="normal" font-weight="normal" text-decoration="none" x="1000" y="60">UNREGISTERED</text><text fill="#eeeeee" stroke="none" font-family="Arial" font-size="24px" font-style="normal" font-weight="normal" text-decoration="none" x="1000" y="90">UNREGISTERED</text><text fill="#eeeeee" stroke="none" font-family="Arial" font-size="24px" font-style="normal" font-weight="normal" text-decoration="none" x="1000" y="120">UNREGISTERED</text><text fill="#eeeeee" stroke="none" font-family="Arial" font-size="24px" font-style="normal" font-weight="normal" text-decoration="none" x="1000" y="150">UNREGISTERED</text><text fill="#eeeeee" stroke="none" font-family="Arial" font-size="24px" font-style="normal" font-weight="normal" text-decoration="none" x="1000" y="180">UNREGISTERED</text><text fill="#eeeeee" stroke="none" font-family="Arial" font-size="24px" font-style="normal" font-weight="normal" text-decoration="none" x="1000" y="210">UNREGISTERED</text><text fill="#eeeeee" stroke="none" font-family="Arial" font-size="24px" font-style="normal" font-weight="normal" text-decoration="none" x="1000" y="240">UNREGISTERED</text><text fill="#eeeeee" stroke="none" font-family="Arial" font-size="24px" font-style="normal" font-weight="normal" text-decoration="none" x="1000" y="270">UNREGISTERED</text><text fill="#eeeeee" stroke="none" font-family="Arial" font-size="24px" font-style="normal" font-weight="normal" text-decoration="none" x="1000" y="300">UNREGISTERED</text><text fill="#eeeeee" stroke="none" font-family="Arial" font-size="24px" font-style="normal" font-weight="normal" text-decoration="none" x="1000" y="330">UNREGISTERED</text><text fill="#eeeeee" stroke="none" font-family="Arial" font-size="24px" font-style="normal" font-weight="normal" text-decoration="none" x="1000" y="360">UNREGISTERED</text><text fill="#eeeeee" stroke="none" font-family="Arial" font-size="24px" font-style="normal" font-weight="normal" text-decoration="none" x="1000" y="390">UNREGISTERED</text><text fill="#eeeeee" stroke="none" font-family="Arial" font-size="24px" font-style="normal" font-weight="normal" text-decoration="none" x="1000" y="420">UNREGISTERED</text><text fill="#eeeeee" stroke="none" font-family="Arial" font-size="24px" font-style="normal" font-weight="normal" text-decoration="none" x="1000" y="450">UNREGISTERED</text><text fill="#eeeeee" stroke="none" font-family="Arial" font-size="24px" font-style="normal" font-weight="normal" text-decoration="none" x="1000" y="480">UNREGISTERED</text><text fill="#eeeeee" stroke="none" font-family="Arial" font-size="24px" font-style="normal" font-weight="normal" text-decoration="none" x="1000" y="510">UNREGISTERED</text><text fill="#eeeeee" stroke="none" font-family="Arial" font-size="24px" font-style="normal" font-weight="normal" text-decoration="none" x="1000" y="540">UNREGISTERED</text><text fill="#eeeeee" stroke="none" font-family="Arial" font-size="24px" font-style="normal" font-weight="normal" text-decoration="none" x="1000" y="570">UNREGISTERED</text><text fill="#eeeeee" stroke="none" font-family="Arial" font-size="24px" font-style="normal" font-weight="normal" text-decoration="none" x="1000" y="600">UNREGISTERED</text><g transform="translate(-14,10) scale(1,1)"><path fill="none" stroke="#000000" d="M 24 0 L 1136 0 L 1136 591 L 24 591 L 24 0" stroke-miterlimit="10"/></g><g transform="translate(-14,10) scale(1,1)"><path fill="#ffffff" stroke="none" d="M 24 0 L 24 22 L 204.75341796875 22 L 215.75341796875 11 L 215.75341796875 0 L 24 0"/></g><g transform="translate(-14,10) scale(1,1)"><path fill="none" stroke="#000000" d="M 24 0 L 24 22 L 204.75341796875 22 L 215.75341796875 11 L 215.75341796875 0 L 24 0 L 24 0" stroke-miterlimit="10"/></g><g transform="translate(-14,10) scale(1,1)"><g><path fill="none" stroke="none"/><text fill="#000000" stroke="none" font-family="Arial" font-size="13px" font-style="normal" font-weight="normal" text-decoration="none" x="48.72998046875" y="16">Search selected furnitures</text></g></g><g transform="translate(-14,10) scale(1,1)"><g><path fill="none" stroke="none"/><text fill="#000000" stroke="none" font-family="Arial" font-size="13px" font-style="normal" font-weight="bold" text-decoration="none" x="28.279541015625" y="16">sd</text></g></g><g transform="translate(-14,10) scale(1,1)"><path fill="#ffffff" stroke="none" d="M 90.8631454190341 47.3 C 90.8631454190341 43.82060576 93.74154714121592 41 97.292236328125 41 C 100.84292551503408 41 103.7213272372159 43.82060576 103.7213272372159 47.3 C 103.7213272372159 50.779394239999995 100.84292551503408 53.6 97.292236328125 53.6 C 93.74154714121592 53.6 90.8631454190341 50.779394239999995 90.8631454190341 47.3 Z"/></g><g transform="translate(-14,10) scale(1,1)"><path fill="none" stroke="#000000" d="M 90.8631454190341 47.3 C 90.8631454190341 43.82060576 93.74154714121592 41 97.292236328125 41 C 100.84292551503408 41 103.7213272372159 43.82060576 103.7213272372159 47.3 C 103.7213272372159 50.779394239999995 100.84292551503408 53.6 97.292236328125 53.6 C 93.74154714121592 53.6 90.8631454190341 50.779394239999995 90.8631454190341 47.3 Z" stroke-miterlimit="10"/></g><g transform="translate(-14,10) scale(1,1)"><path fill="none" stroke="#000000" d="M 97.292236328125 53.6 L 97.292236328125 66.4" stroke-miterlimit="10"/></g><g transform="translate(-14,10) scale(1,1)"><path fill="none" stroke="#000000" d="M 90.48496360085227 58.4 L 104.09950905539773 58.4" stroke-miterlimit="10"/></g><g transform="translate(-14,10) scale(1,1)"><path fill="none" stroke="#000000" d="M 97.292236328125 66.4 L 87.83769087357955 79" stroke-miterlimit="10"/></g><g transform="translate(-14,10) scale(1,1)"><path fill="none" stroke="#000000" d="M 97.292236328125 66.4 L 106.74678178267045 79" stroke-miterlimit="10"/></g><g transform="translate(-14,10) scale(1,1)"><g><path fill="none" stroke="none"/><text fill="#000000" stroke="none" font-family="Arial" font-size="13px" font-style="normal" font-weight="bold" text-decoration="none" x="78.8681640625" y="98">: User</text></g></g><g transform="translate(-14,10) scale(1,1)"><path fill="none" stroke="#000000" d="M 98.5 105 L 98.5 456" stroke-miterlimit="10" stroke-dasharray="3"/></g><g transform="translate(-14,10) scale(1,1)"><rect fill="#C0C0C0" stroke="none" x="167" y="47" width="200" height="39" opacity="0.2"/></g><g transform="translate(-14,10) scale(1,1)"><rect fill="#ffffff" stroke="none" x="160" y="40" width="200" height="39"/></g><g transform="translate(-14,10) scale(1,1)"><path fill="none" stroke="#000000" d="M 160 40 L 360 40 L 360 79 L 160 79 L 160 40 Z Z" stroke-miterlimit="10"/></g><g transform="translate(-14,10) scale(1,1)"><g><path fill="none" stroke="none"/><text fill="#000000" stroke="none" font-family="Arial" font-size="13px" font-style="normal" font-weight="bold" text-decoration="none" x="195.707763671875" y="58">: SearchFurnituresUI</text></g></g><g transform="translate(-14,10) scale(1,1)"><path fill="none" stroke="#000000" d="M 261.5 80 L 261.5 456" stroke-miterlimit="10" stroke-dasharray="3"/></g><g transform="translate(-14,10) scale(1,1)"><rect fill="#C0C0C0" stroke="none" x="391" y="47" width="187.32080078125" height="39" opacity="0.2"/></g><g transform="translate(-14,10) scale(1,1)"><rect fill="#ffffff" stroke="none" x="384" y="40" width="187.32080078125" height="39"/></g><g transform="translate(-14,10) scale(1,1)"><path fill="none" stroke="#000000" d="M 384 40 L 571.32080078125 40 L 571.32080078125 79 L 384 79 L 384 40 Z Z" stroke-miterlimit="10"/></g><g transform="translate(-14,10) scale(1,1)"><g><path fill="none" stroke="none"/><text fill="#000000" stroke="none" font-family="Arial" font-size="13px" font-style="normal" font-weight="bold" text-decoration="none" x="419.8681640625" y="58">: SearchFurnitures</text></g></g><g transform="translate(-14,10) scale(1,1)"><path fill="none" stroke="#000000" d="M 478.5 80 L 478.5 448" stroke-miterlimit="10" stroke-dasharray="3"/></g><g transform="translate(-14,10) scale(1,1)"><rect fill="#C0C0C0" stroke="none" x="823" y="47" width="234.26806640625" height="39" opacity="0.2"/></g><g transform="translate(-14,10) scale(1,1)"><rect fill="#ffffff" stroke="none" x="816" y="40" width="234.26806640625" height="39"/></g><g transform="translate(-14,10) scale(1,1)"><path fill="none" stroke="#000000" d="M 816 40 L 1050.26806640625 40 L 1050.26806640625 79 L 816 79 L 816 40 Z Z" stroke-miterlimit="10"/></g><g transform="translate(-14,10) scale(1,1)"><g><path fill="none" stroke="none"/><text fill="#000000" stroke="none" font-family="Arial" font-size="13px" font-style="normal" font-weight="bold" text-decoration="none" x="851.8681640625" y="58">: SimilarityCheckingModel</text></g></g><g transform="translate(-14,10) scale(1,1)"><path fill="none" stroke="#000000" d="M 934.5 80 L 934.5 448" stroke-miterlimit="10" stroke-dasharray="3"/></g><g transform="translate(-14,10) scale(1,1)"><rect fill="#C0C0C0" stroke="none" x="591" y="47" width="209.0107421875" height="39" opacity="0.2"/></g><g transform="translate(-14,10) scale(1,1)"><rect fill="#ffffff" stroke="none" x="584" y="40" width="209.0107421875" height="39"/></g><g transform="translate(-14,10) scale(1,1)"><path fill="none" stroke="#000000" d="M 584 40 L 793.0107421875 40 L 793.0107421875 79 L 584 79 L 584 40 Z Z" stroke-miterlimit="10"/></g><g transform="translate(-14,10) scale(1,1)"><g><path fill="none" stroke="none"/><text fill="#000000" stroke="none" font-family="Arial" font-size="13px" font-style="normal" font-weight="bold" text-decoration="none" x="635.17236328125" y="58">: WebDataLoader</text></g></g><g transform="translate(-14,10) scale(1,1)"><path fill="none" stroke="#000000" d="M 689.5 80 L 689.5 464" stroke-miterlimit="10" stroke-dasharray="3"/></g><g transform="translate(-14,10) scale(1,1)"><path fill="none" stroke="#000000" d="M 98 152 L 254 152" stroke-miterlimit="10"/></g><g transform="translate(-14,10) scale(1,1)"><path fill="#000000" stroke="none" d="M 243.83732514237585 156.209517756016 L 254 152 L 243.83732514237585 147.790482243984"/></g><g transform="translate(-14,10) scale(1,1)"><path fill="none" stroke="#000000" d="M 243.83732514237585 156.209517756016 L 254 152 L 243.83732514237585 147.790482243984 L 243.83732514237585 156.209517756016" stroke-miterlimit="10"/></g><g transform="translate(-14,10) scale(1,1)"><g><path fill="none" stroke="none"/><text fill="#000000" stroke="none" font-family="Arial" font-size="13px" font-style="normal" font-weight="normal" text-decoration="none" x="116.5" y="147">1 : selectFurnitures()</text></g></g><g transform="translate(-14,10) scale(1,1)"><rect fill="#ffffff" stroke="none" x="254" y="152" width="13" height="192"/></g><g transform="translate(-14,10) scale(1,1)"><path fill="none" stroke="#000000" d="M 254 152 L 267 152 L 267 344 L 254 344 L 254 152 Z Z" stroke-miterlimit="10"/></g><g transform="translate(-14,10) scale(1,1)"><path fill="none" stroke="#000000" d="M 267 171 L 471 171" stroke-miterlimit="10"/></g><g transform="translate(-14,10) scale(1,1)"><path fill="#000000" stroke="none" d="M 460.83732514237585 175.209517756016 L 471 171 L 460.83732514237585 166.790482243984"/></g><g transform="translate(-14,10) scale(1,1)"><path fill="none" stroke="#000000" d="M 460.83732514237585 175.209517756016 L 471 171 L 460.83732514237585 166.790482243984 L 460.83732514237585 175.209517756016" stroke-miterlimit="10"/></g><g transform="translate(-14,10) scale(1,1)"><g><path fill="none" stroke="none"/><text fill="#000000" stroke="none" font-family="Arial" font-size="13px" font-style="normal" font-weight="normal" text-decoration="none" x="297.010986328125" y="166">2 : getSimilarFurnitures()</text></g></g><g transform="translate(-14,10) scale(1,1)"><rect fill="#ffffff" stroke="none" x="471" y="171" width="13" height="133"/></g><g transform="translate(-14,10) scale(1,1)"><path fill="none" stroke="#000000" d="M 471 171 L 484 171 L 484 304 L 471 304 L 471 171 Z Z" stroke-miterlimit="10"/></g><g transform="translate(-14,10) scale(1,1)"><path fill="none" stroke="#000000" d="M 484 184 L 682 184" stroke-miterlimit="10"/></g><g transform="translate(-14,10) scale(1,1)"><path fill="#000000" stroke="none" d="M 671.8373251423759 188.209517756016 L 682 184 L 671.8373251423758 179.790482243984"/></g><g transform="translate(-14,10) scale(1,1)"><path fill="none" stroke="#000000" d="M 671.8373251423759 188.209517756016 L 682 184 L 671.8373251423758 179.790482243984 L 671.8373251423759 188.209517756016" stroke-miterlimit="10"/></g><g transform="translate(-14,10) scale(1,1)"><g><path fill="none" stroke="none"/><text fill="#000000" stroke="none" font-family="Arial" font-size="13px" font-style="normal" font-weight="normal" text-decoration="none" x="520.515625" y="179">3 : getFurnitureData()</text></g></g><g transform="translate(-14,10) scale(1,1)"><rect fill="#ffffff" stroke="none" x="682" y="184" width="13" height="28"/></g><g transform="translate(-14,10) scale(1,1)"><path fill="none" stroke="#000000" d="M 682 184 L 695 184 L 695 212 L 682 212 L 682 184 Z Z" stroke-miterlimit="10"/></g><g transform="translate(-14,10) scale(1,1)"><path fill="none" stroke="#000000" d="M 484 276 L 927 276" stroke-miterlimit="10"/></g><g transform="translate(-14,10) scale(1,1)"><path fill="#000000" stroke="none" d="M 916.8373251423759 280.209517756016 L 927 276 L 916.8373251423758 271.790482243984"/></g><g transform="translate(-14,10) scale(1,1)"><path fill="none" stroke="#000000" d="M 916.8373251423759 280.209517756016 L 927 276 L 916.8373251423758 271.790482243984 L 916.8373251423759 280.209517756016" stroke-miterlimit="10"/></g><g transform="translate(-14,10) scale(1,1)"><g><path fill="none" stroke="none"/><text fill="#000000" stroke="none" font-family="Arial" font-size="13px" font-style="normal" font-weight="normal" text-decoration="none" x="648.769775390625" y="271">4 : checkSimilarity()</text></g></g><g transform="translate(-14,10) scale(1,1)"><rect fill="#ffffff" stroke="none" x="927" y="276" width="13" height="28"/></g><g transform="translate(-14,10) scale(1,1)"><path fill="none" stroke="#000000" d="M 927 276 L 940 276 L 940 304 L 927 304 L 927 276 Z Z" stroke-miterlimit="10"/></g><g transform="translate(-14,10) scale(1,1)"><path fill="none" stroke="#000000" d="M 408 232 L 976 232 L 976 328 L 408 328 L 408 232" stroke-miterlimit="10"/></g><g transform="translate(-14,10) scale(1,1)"><path fill="#ffffff" stroke="none" d="M 408 232 L 408 254 L 448.578125 254 L 459.578125 243 L 459.578125 232 L 408 232"/></g><g transform="translate(-14,10) scale(1,1)"><path fill="none" stroke="#000000" d="M 408 232 L 408 254 L 448.578125 254 L 459.578125 243 L 459.578125 232 L 408 232 L 408 232" stroke-miterlimit="10"/></g><g transform="translate(-14,10) scale(1,1)"><g><path fill="none" stroke="none"/><text fill="#000000" stroke="none" font-family="Arial" font-size="13px" font-style="normal" font-weight="bold" text-decoration="none" x="411.57177734375" y="248">loop</text></g></g></g></svg>