<svg version="1.1" xmlns="http://www.w3.org/2000/svg" xmlns:xlink="http://www.w3.org/1999/xlink" width="648" height="155"><defs/><g><text fill="#eeeeee" stroke="none" font-family="Arial" font-size="24px" font-style="normal" font-weight="normal" text-decoration="none" x="0" y="0">UNREGISTERED</text><text fill="#eeeeee" stroke="none" font-family="Arial" font-size="24px" font-style="normal" font-weight="normal" text-decoration="none" x="0" y="30">UNREGISTERED</text><text fill="#eeeeee" stroke="none" font-family="Arial" font-size="24px" font-style="normal" font-weight="normal" text-decoration="none" x="0" y="60">UNREGISTERED</text><text fill="#eeeeee" stroke="none" font-family="Arial" font-size="24px" font-style="normal" font-weight="normal" text-decoration="none" x="0" y="90">UNREGISTERED</text><text fill="#eeeeee" stroke="none" font-family="Arial" font-size="24px" font-style="normal" font-weight="normal" text-decoration="none" x="0" y="120">UNREGISTERED</text><text fill="#eeeeee" stroke="none" font-family="Arial" font-size="24px" font-style="normal" font-weight="normal" text-decoration="none" x="0" y="150">UNREGISTERED</text><text fill="#eeeeee" stroke="none" font-family="Arial" font-size="24px" font-style="normal" font-weight="normal" text-decoration="none" x="200" y="0">UNREGISTERED</text><text fill="#eeeeee" stroke="none" font-family="Arial" font-size="24px" font-style="normal" font-weight="normal" text-decoration="none" x="200" y="30">UNREGISTERED</text><text fill="#eeeeee" stroke="none" font-family="Arial" font-size="24px" font-style="normal" font-weight="normal" text-decoration="none" x="200" y="60">UNREGISTERED</text><text fill="#eeeeee" stroke="none" font-family="Arial" font-size="24px" font-style="normal" font-weight="normal" text-decoration="none" x="200" y="90">UNREGISTERED</text><text fill="#eeeeee" stroke="none" font-family="Arial" font-size="24px" font-style="normal" font-weight="normal" text-decoration="none" x="200" y="120">UNREGISTERED</text><text fill="#eeeeee" stroke="none" font-family="Arial" font-size="24px" font-style="normal" font-weight="normal" text-decoration="none" x="200" y="150">UNREGISTERED</text><text fill="#eeeeee" stroke="none" font-family="Arial" font-size="24px" font-style="normal" font-weight="normal" text-decoration="none" x="400" y="0">UNREGISTERED</text><text fill="#eeeeee" stroke="none" font-family="Arial" font-size="24px" font-style="normal" font-weight="normal" text-decoration="none" x="400" y="30">UNREGISTERED</text><text fill="#eeeeee" stroke="none" font-family="Arial" font-size="24px" font-style="normal" font-weight="normal" text-decoration="none" x="400" y="60">UNREGISTERED</text><text fill="#eeeeee" stroke="none" font-family="Arial" font-size="24px" font-style="normal" font-weight="normal" text-decoration="none" x="400" y="90">UNREGISTERED</text><text fill="#eeeeee" stroke="none" font-family="Arial" font-size="24px" font-style="normal" font-weight="normal" text-decoration="none" x="400" y="120">UNREGISTERED</text><text fill="#eeeeee" stroke="none" font-family="Arial" font-size="24px" font-style="normal" font-weight="normal" text-decoration="none" x="400" y="150">UNREGISTERED</text><text fill="#eeeeee" stroke="none" font-family="Arial" font-size="24px" font-style="normal" font-weight="normal" text-decoration="none" x="600" y="0">UNREGISTERED</text><text fill="#eeeeee" stroke="none" font-family="Arial" font-size="24px" font-style="normal" font-weight="normal" text-decoration="none" x="600" y="30">UNREGISTERED</text><text fill="#eeeeee" stroke="none" font-family="Arial" font-size="24px" font-style="normal" font-weight="normal" text-decoration="none" x="600" y="60">UNREGISTERED</text><text fill="#eeeeee" stroke="none" font-family="Arial" font-size="24px" font-style="normal" font-weight="normal" text-decoration="none" x="600" y="90">UNREGISTERED</text><text fill="#eeeeee" stroke="none" font-family="Arial" font-size="24px" font-style="normal" font-weight="normal" text-decoration="none" x="600" y="120">UNREGISTERED</text><text fill="#eeeeee" stroke="none" font-family="Arial" font-size="24px" font-style="normal" font-weight="normal" text-decoration="none" x="600" y="150">UNREGISTERED</text><g transform="translate(-398,-318) scale(1,1)"><path fill="#ffffff" stroke="none" d="M 424.40935031960225 393.68 C 424.40935031960225 388.886167936 428.29519264454774 385 433.088623046875 385 C 437.88205344920226 385 441.76789577414775 388.886167936 441.76789577414775 393.68 C 441.76789577414775 398.473832064 437.88205344920226 402.36 433.088623046875 402.36 C 428.29519264454774 402.36 424.40935031960225 398.473832064 424.40935031960225 393.68 Z"/></g><g transform="translate(-398,-318) scale(1,1)"><path fill="none" stroke="#000000" d="M 424.40935031960225 393.68 C 424.40935031960225 388.886167936 428.29519264454774 385 433.088623046875 385 C 437.88205344920226 385 441.76789577414775 388.886167936 441.76789577414775 393.68 C 441.76789577414775 398.473832064 437.88205344920226 402.36 433.088623046875 402.36 C 428.29519264454774 402.36 424.40935031960225 398.473832064 424.40935031960225 393.68 Z" stroke-miterlimit="10"/></g><g transform="translate(-398,-318) scale(1,1)"><path fill="none" stroke="#000000" d="M 433.088623046875 402.36 L 433.088623046875 419.64" stroke-miterlimit="10"/></g><g transform="translate(-398,-318) scale(1,1)"><path fill="none" stroke="#000000" d="M 423.89880486505683 408.84 L 442.27844122869317 408.84" stroke-miterlimit="10"/></g><g transform="translate(-398,-318) scale(1,1)"><path fill="none" stroke="#000000" d="M 433.088623046875 419.64 L 420.32498668323865 437" stroke-miterlimit="10"/></g><g transform="translate(-398,-318) scale(1,1)"><path fill="none" stroke="#000000" d="M 433.088623046875 419.64 L 445.85225941051135 437" stroke-miterlimit="10"/></g><g transform="translate(-398,-318) scale(1,1)"><g><path fill="none" stroke="none"/><text fill="#000000" stroke="none" font-family="Arial" font-size="13px" font-style="normal" font-weight="bold" text-decoration="none" x="418.635009765625" y="456">User</text></g></g><g transform="translate(-398,-318) scale(1,1)"><path fill="#C0C0C0" stroke="none" d="M 575 352 C 575 342.6111584 635.8892672 335 711 335 C 786.1107328 335 847 342.6111584 847 352 C 847 361.3888416 786.1107328 369 711 369 C 635.8892672 369 575 361.3888416 575 352 Z" opacity="0.2"/></g><g transform="translate(-398,-318) scale(1,1)"><path fill="#ffffff" stroke="none" d="M 568 345 C 568 335.6111584 628.8892672 328 704 328 C 779.1107328 328 840 335.6111584 840 345 C 840 354.3888416 779.1107328 362 704 362 C 628.8892672 362 568 354.3888416 568 345 Z"/></g><g transform="translate(-398,-318) scale(1,1)"><path fill="none" stroke="#000000" d="M 568 345 C 568 335.6111584 628.8892672 328 704 328 C 779.1107328 328 840 335.6111584 840 345 C 840 354.3888416 779.1107328 362 704 362 C 628.8892672 362 568 354.3888416 568 345 Z" stroke-miterlimit="10"/></g><g transform="translate(-398,-318) scale(1,1)"><g><path fill="none" stroke="none"/><text fill="#000000" stroke="none" font-family="Arial" font-size="13px" font-style="normal" font-weight="bold" text-decoration="none" x="614.425048828125" y="350.5">Detect furnitures in an image</text></g></g><g transform="translate(-398,-318) scale(1,1)"><path fill="#C0C0C0" stroke="none" d="M 799 432 C 799 422.6111584 853.6212544 415 921 415 C 988.3787456 415 1043 422.6111584 1043 432 C 1043 441.3888416 988.3787456 449 921 449 C 853.6212544 449 799 441.3888416 799 432 Z" opacity="0.2"/></g><g transform="translate(-398,-318) scale(1,1)"><path fill="#ffffff" stroke="none" d="M 792 425 C 792 415.6111584 846.6212544 408 914 408 C 981.3787456 408 1036 415.6111584 1036 425 C 1036 434.3888416 981.3787456 442 914 442 C 846.6212544 442 792 434.3888416 792 425 Z"/></g><g transform="translate(-398,-318) scale(1,1)"><path fill="none" stroke="#000000" d="M 792 425 C 792 415.6111584 846.6212544 408 914 408 C 981.3787456 408 1036 415.6111584 1036 425 C 1036 434.3888416 981.3787456 442 914 442 C 846.6212544 442 792 434.3888416 792 425 Z" stroke-miterlimit="10"/></g><g transform="translate(-398,-318) scale(1,1)"><g><path fill="none" stroke="none"/><text fill="#000000" stroke="none" font-family="Arial" font-size="13px" font-style="normal" font-weight="bold" text-decoration="none" x="832.3564453125" y="430.5">Search selected furnitures</text></g></g><g transform="translate(-398,-318) scale(1,1)"><path fill="none" stroke="#000000" d="M 459 415 L 641 363" stroke-miterlimit="10"/></g><g transform="translate(-398,-318) scale(1,1)"><path fill="none" stroke="#000000" d="M 867 407 L 751 363" stroke-miterlimit="10" stroke-dasharray="3"/></g><g transform="translate(-398,-318) scale(1,1)"><path fill="none" stroke="#000000" d="M 761.9949991484272 362.668346979381 L 751 363 L 759.0091525568739 370.54012435711246" stroke-miterlimit="10"/></g><g transform="translate(-398,-318) scale(1,1)"><g><path fill="none" stroke="none"/><text fill="#000000" stroke="none" font-family="Arial" font-size="13px" font-style="normal" font-weight="normal" text-decoration="none" x="777.5" y="395">«extend»</text></g></g></g></svg>